<svg xmlns="http://www.w3.org/2000/svg" fill="none" viewBox="0 0 100 100" id="Gas-Canister--Streamline-Flex.svg" height="100" width="100"><desc>Gas Canister Streamline Icon: https://streamlinehq.com</desc><g id="gas-canister"><path id="Intersect" fill="#79ee8d" d="M11.614714285714287 82.11214285714286c-0.5845 -9.234285714285715 -0.8917142857142858 -18.803857142857144 -0.8917142857142858 -28.609428571428573 0 -3.9712857142857145 0.050428571428571434 -7.903785714285715 0.14921428571428572 -11.791000000000002 0.06935714285714285 -2.7309285714285716 0.9625000000000001 -5.384714285714286 2.5925000000000002 -7.586928571428572 6.212785714285714 -8.393357142857143 18.22714285714286 -20.61692857142857 28.150285714285715 -26.859928571428572 2.2415714285714285 -1.715607142857143 4.992285714285715 -2.6464642857142855 7.823214285714286 -2.707814285714286C52.276857142857146 4.495535714285714 53.47507142857143 4.464285714285714 56.64164285714286 4.464285714285714c9.58607142857143 0 13.78657142857143 0.2863357142857143 21.78907142857143 0.8319285714285715 6.807142857142857 0.46413571428571426 12.213571428571429 5.838285714285714 12.641428571428573 12.591714285714286 0.5842857142857143 9.234428571428573 0.8914285714285715 25.809285714285718 0.8914285714285715 35.614785714285716 0 9.805571428571428 -0.30714285714285716 19.37514285714286 -0.8914285714285715 28.609428571428573 -0.4278571428571429 6.753571428571429 -5.8342857142857145 12.127857142857144 -12.641428571428573 12.59142857142857 -8.0025 0.5457142857142857 -17.501285714285714 0.8321428571428572 -27.087357142857144 0.8321428571428572 -9.586 0 -19.084857142857143 -0.2864285714285714 -27.08707142857143 -0.8321428571428572 -6.8075 -0.4635714285714286 -12.214142857142859 -5.8378571428571435 -12.641571428571428 -12.59142857142857Z" stroke-width="1"></path><path id="Union" fill="#0c098c" fill-rule="evenodd" d="m49.906214285714285 0.08152000000000001 0.00007142857142857143 -7.1428571428571e-7C52.36442857142857 0.027919857142857142 53.64492857142858 0 56.64164285714286 0c9.733714285714285 0 14.049428571428573 0.29389000000000004 22.09264285714286 0.8422642857142857 9.004285714285714 0.6139428571428572 16.22214285714286 7.737878571428571 16.792857142857144 16.763664285714285 0.5935714285714285 9.372642857142859 0.9007142857142857 26.05564285714286 0.9007142857142857 35.89678571428571 0 9.898357142857144 -0.31 19.56157142857143 -0.9007142857142857 28.891571428571428 -0.5707142857142857 9.025714285714287 -7.788571428571429 16.149285714285714 -16.792857142857144 16.76357142857143C70.61114285714287 99.71142857142857 61.00892857142858 100 51.343357142857144 100s-19.267785714285715 -0.2885714285714286 -27.39071428571429 -0.8421428571428572c-9.004642857142859 -0.6142857142857143 -16.22207142857143 -7.737857142857143 -16.793285714285716 -16.76357142857143C6.568828571428572 73.06428571428572 6.258721428571429 63.40107142857144 6.258721428571429 53.50271428571429c0 -4.009 0.050871428571428574 -7.979357142857143 0.15062857142857142 -11.904428571428571 0.09220714285714286 -3.627857142857143 1.2792214285714287 -7.173642857142858 3.46715 -10.1295 0.39771428571428574 -0.5372857142857143 0.8180714285714287 -1.0895714285714286 1.2592142857142858 -1.6545714285714288l-5.453985714285714 -5.4C3.5668214285714286 22.32021428571429 2.8559785714285715 18.96414285714286 4.4162357142857145 16.125071428571427 7.924714285714285 9.740857142857143 12.620428571428572 5.103607142857142 19.06742857142857 1.6433642857142858l1.6875 3.144114285714286 -1.6875 -3.144114285714286c2.806357142857143 -1.5062200000000001 6.101500000000001 -0.8159785714285716 8.185428571428572 1.2473l5.373142857142858 5.32005c2.1814285714285715 -1.725457142857143 4.351428571428571 -3.2921000000000005 6.447928571428572 -4.621107142857142 2.990714285714286 -2.2303928571428573 6.598 -3.4162800000000004 10.26757142857143 -3.495799285714286l0.5647142857142858 -0.012287857142857142ZM50.1015 9.007928571428572l-0.5665714285714286 0.012357142857142858c-1.9215000000000002 0.04164285714285715 -3.7474285714285718 0.6728571428571429 -5.206642857142858 1.7897142857142858 -0.10835714285714286 0.08292857142857143 -0.22050000000000003 0.16085714285714287 -0.336 0.23349999999999999 -9.337214285714285 5.874428571428572 -20.964142857142857 17.665000000000003 -26.939357142857144 25.737357142857142 -1.0721428571428573 1.4485000000000001 -1.6712857142857143 3.210357142857143 -1.717857142857143 5.0442857142857145 -0.09785714285714286 3.849357142857143 -0.1477857142857143 7.74407142857143 -0.1477857142857143 11.67757142857143 0 9.712785714285715 0.3043571428571429 19.188 0.8827857142857144 28.327285714285715 0.2836428571428572 4.481428571428571 3.8795 8.105714285714287 8.489928571428573 8.420000000000002 7.881500000000001 0.5371428571428571 17.276857142857143 0.8214285714285715 26.783357142857145 0.8214285714285715 9.50657142857143 0 18.901857142857143 -0.2842857142857143 26.78307142857143 -0.8214285714285715 4.610714285714286 -0.3142857142857143 8.206428571428573 -3.9385714285714286 8.490000000000002 -8.420000000000002 0.5785714285714286 -9.139285714285716 0.8828571428571429 -18.614500000000003 0.8828571428571429 -28.327285714285715 0 -9.769928571428572 -0.30714285714285716 -26.2365 -0.8828571428571429 -35.33278571428571 -0.2835714285714286 -4.481071428571428 -3.879285714285715 -8.105428571428572 -8.490000000000002 -8.419785714285716l-0.008571428571428572 -0.0005714285714285715C70.16235714285715 9.207142857142857 66.07657142857143 8.928571428571429 56.64164285714286 8.928571428571429c-2.8990714285714287 0 -4.102714285714286 0.026214285714285718 -6.539857142857143 0.07935714285714286l-0.00014285714285714287 0 -0.00014285714285714287 0Zm0.33271428571428574 11.135428571428571c0 -2.9587142857142856 2.3985 -5.357142857142858 5.357142857142858 -5.357142857142858l16.393642857142858 0c2.9585714285714286 0 5.357142857142858 2.3984285714285716 5.357142857142858 5.357142857142858 0 2.9586428571428574 -2.3985714285714286 5.357142857142858 -5.357142857142858 5.357142857142858l-16.393642857142858 0c-2.9586428571428574 0 -5.357142857142858 -2.3985 -5.357142857142858 -5.357142857142858ZM40.82892857142858 42.42021428571429c-2.0905 -2.093714285714286 -5.482428571428572 -2.096357142857143 -7.576142857142857 -0.005857142857142858 -2.093714285714286 2.0904285714285713 -2.0964285714285715 5.482357142857143 -0.005928571428571429 7.576142857142857l10.931142857142857 10.948214285714286 -10.931142857142857 10.948428571428572c-2.0905 2.093571428571429 -2.0877857142857144 5.485714285714286 0.005928571428571429 7.575714285714286 2.093714285714286 2.0907142857142857 5.4856428571428575 2.087857142857143 7.576142857142857 -0.005714285714285715l10.919285714285715 -10.936357142857144L62.667571428571435 79.45714285714287c2.0904285714285713 2.093571428571429 5.482428571428572 2.0964285714285715 7.576142857142857 0.005714285714285715 2.0934285714285714 -2.0900000000000003 2.0962857142857145 -5.482142857142857 0.005928571428571429 -7.575714285714286L59.31842857142857 60.93871428571429l10.931214285714287 -10.948214285714286c2.090357142857143 -2.0937857142857146 2.0875000000000004 -5.485714285714286 -0.005928571428571429 -7.576142857142857 -2.093714285714286 -2.0905 -5.485714285714286 -2.087857142857143 -7.576142857142857 0.005857142857142858l-10.919357142857143 10.936428571428571 -10.919285714285715 -10.936428571428571Z" clip-rule="evenodd" stroke-width="1"></path></g></svg>